/vscmnt/brussel_pixiu_data/_data_brussel/112/vsc11236/PredSimResults/SUBJ04opt3D/weighted/expIG/worker_04.mot
version=1
nRows=11
nColumns=50
inDegrees=yes
endheader
                time	         pelvis_tilt	         pelvis_list	     pelvis_rotation	           pelvis_tx	           pelvis_ty	           pelvis_tz	       hip_flexion_r	     hip_adduction_r	      hip_rotation_r	        knee_angle_r	       ankle_angle_r	         mtp_angle_r	       hip_flexion_l	     hip_adduction_l	      hip_rotation_l	        knee_angle_l	       ankle_angle_l	         mtp_angle_l	    lumbar_extension	      lumbar_bending	     lumbar_rotation	 ercspn_r/activation	 intobl_r/activation	 extobl_r/activation	    abd_r/activation	    add_r/activation	hamstrings_r/activation	bifemsh_r/activation	glut_max_r/activation	iliopsoas_r/activation	rect_fem_r/activation	  vasti_r/activation	gastroc_r/activation	 soleus_r/activation	tib_ant_r/activation	 ercspn_l/activation	 intobl_l/activation	 extobl_l/activation	    abd_l/activation	    add_l/activation	hamstrings_l/activation	bifemsh_l/activation	glut_max_l/activation	iliopsoas_l/activation	rect_fem_l/activation	  vasti_l/activation	gastroc_l/activation	 soleus_l/activation	tib_ant_l/activation	
          1.33027777	         -1.73555979	          0.38228663	          7.46413393	          1.19724999	          0.88077192	         -0.00910888	         28.80263698	         -2.47148078	         -8.04730730	        -11.54645757	          4.20849492	          0.23707076	        -12.94706862	         -0.04857904	         -7.04034764	         -7.27013898	         13.89467489	         19.87575734	        -13.58247513	         -3.63262178	         -8.42408295	          0.04625352	          0.22624928	          0.01742715	          0.00999999	          0.36336680	          0.06672687	          0.03391403	          0.01415027	          0.16083929	          0.03361845	          0.03971216	          0.00999999	          0.01552976	          0.32947535	          0.03180342	          0.00999999	          0.00999999	          0.06331829	          0.00999999	          0.02564695	          0.32886003	          0.01674044	          0.02227793	          0.01000000	          0.00999999	          0.29226503	          0.27457381	          0.00999999	
          1.34358055	         -1.82346793	          0.32832113	          7.20895076	          1.21307973	          0.87839586	         -0.00867573	         28.80111297	         -2.27096053	         -7.99334341	        -13.17382800	          4.03165582	          0.22377269	        -13.59855687	         -0.19423042	         -7.72353262	         -7.93628857	         13.70380797	         21.36467381	        -13.03550545	         -2.91541329	         -8.50547545	          0.03785957	          0.22303967	          0.01426452	          0.00999999	          0.29742403	          0.07436113	          0.02775941	          0.04043771	          0.13165064	          0.02751747	          0.03250531	          0.01221712	          0.01492581	          0.35211489	          0.03472048	          0.00999999	          0.00999999	          0.05182747	          0.00999999	          0.03773142	          0.27689925	          0.01370243	          0.01823500	          0.00999999	          0.00999999	          0.27550502	          0.27478541	          0.00999999	
          1.35688332	         -1.89592957	          0.20157217	          6.91050749	          1.22923057	          0.87625226	         -0.00815168	         28.69469648	         -2.01850907	         -7.99190381	        -14.60720463	          3.62829397	          0.21543328	        -14.14617275	         -0.42917360	         -8.45049138	         -8.85124821	         13.42588094	         22.92687572	        -12.46234410	         -2.09882298	         -8.55056936	          0.03098892	          0.18256307	          0.01167584	          0.01787304	          0.24344838	          0.08269272	          0.02272171	          0.03309919	          0.10775906	          0.02252368	          0.09904109	          0.00999999	          0.01221712	          0.38159343	          0.03095409	          0.00999999	          0.00999999	          0.04242197	          0.00999999	          0.03088405	          0.22664837	          0.01121575	          0.01492576	          0.00999999	          0.00999999	          0.22550717	          0.26584161	          0.00999999	
          1.37018610	         -1.95357805	          0.01795927	          6.56953683	          1.24556684	          0.87451740	         -0.00751058	         28.49112307	         -1.72059801	         -8.13243536	        -15.87678108	          3.19558953	          0.19386635	        -14.54485091	         -0.74595587	         -9.21967454	        -10.07588521	         13.01149681	         24.55448889	        -11.88580389	         -1.20759711	         -8.55534261	          0.02536514	          0.14943205	          0.00999999	          0.03367888	          0.21309904	          0.08385204	          0.01859824	          0.02709245	          0.08820326	          0.01843615	          0.18001318	          0.00999999	          0.00999999	          0.40740621	          0.04271485	          0.00999999	          0.00999999	          0.03472335	          0.00999999	          0.05287337	          0.18551687	          0.01079929	          0.01221708	          0.00999999	          0.00999999	          0.18458277	          0.25126106	          0.00999999	
          1.38348888	         -1.99693579	         -0.21623743	          6.19761403	          1.26197922	          0.87337458	         -0.00674667	         28.15587213	         -1.38023941	         -8.40705452	        -16.97435812	          2.96482294	          0.16950748	        -14.74913320	         -1.15187253	        -10.02207664	        -11.66690259	         12.39343282	         26.25579870	        -11.32147159	         -0.25668392	         -8.52156192	          0.02553566	          0.12231355	          0.00999999	          0.07008432	          0.19001122	          0.08246386	          0.01522309	          0.02217579	          0.07219638	          0.01509041	          0.23620496	          0.00999999	          0.00999999	          0.41412112	          0.07151504	          0.00999999	          0.00999999	          0.02842186	          0.00999999	          0.05694712	          0.15184980	          0.01451051	          0.00999999	          0.00999999	          0.00999999	          0.15108522	          0.21202663	          0.00999999	
          1.39679166	         -2.02746554	         -0.49096887	          5.80627168	          1.27829633	          0.87300152	         -0.00585583	         27.68862489	         -0.99510565	         -8.74924231	        -17.89380683	          2.97704479	          0.14889886	        -14.70014648	         -1.65313044	        -10.85659330	        -13.69680737	         11.51613061	         28.01106505	        -10.78895768	          0.73482856	         -8.45384758	          0.02780583	          0.10011644	          0.00999999	          0.09692535	          0.17268706	          0.08294064	          0.01246045	          0.01815139	          0.05909439	          0.01235184	          0.25870556	          0.00999999	          0.00999999	          0.40514603	          0.09432440	          0.00999999	          0.00999999	          0.02326394	          0.01000001	          0.08294867	          0.12429254	          0.02227800	          0.00999999	          0.00999999	          0.00999999	          0.12366671	          0.17354864	          0.00999999	
          1.41009444	         -2.04621898	         -0.78854291	          5.40777935	          1.29436880	          0.87345237	         -0.00484593	         27.10825402	         -0.56992694	         -9.07985487	        -18.64870120	          3.21815539	          0.14453103	        -14.35393435	         -2.24850528	        -11.71936713	        -16.21468440	         10.33724386	         29.77977781	        -10.30417092	          1.74165094	         -8.35781391	          0.02945822	          0.08194759	          0.00999999	          0.11437630	          0.17868195	          0.08500167	          0.01019917	          0.01485733	          0.04837011	          0.01011027	          0.27897410	          0.00999999	          0.00999999	          0.37287325	          0.08972520	          0.00999999	          0.00999999	          0.01904207	          0.11620445	          0.10131208	          0.10173628	          0.01823506	          0.00999999	          0.00999999	          0.00999999	          0.10122403	          0.14205353	          0.00999999	
          1.42339721	         -2.05426836	         -1.07884604	          5.01190398	          1.31008230	          0.87468712	         -0.00374086	         26.41212018	         -0.11986358	         -9.32090574	        -19.20842557	          3.63187708	          0.19359753	        -13.68449826	         -2.92261618	        -12.59207160	        -19.23824361	          8.82752912	         31.46809575	         -9.88028139	          2.72844225	         -8.23582370	          0.02807338	          0.06707598	          0.00999999	          0.12331723	          0.17775421	          0.08848658	          0.01000000	          0.01374655	          0.03959204	          0.00999999	          0.28179392	          0.00999999	          0.00999999	          0.33636864	          0.08311435	          0.00999999	          0.00999999	          0.01558637	          0.18676415	          0.11705133	          0.08327348	          0.01492581	          0.00999999	          0.00999999	          0.00999999	          0.08285418	          0.11627407	          0.00999999	
          1.43669999	         -2.05205925	         -1.32631691	          4.62364899	          1.32536752	          0.87659727	         -0.00257054	         25.59080631	          0.32278657	         -9.44509863	        -19.52562657	          4.06426277	          0.31891446	        -12.69404260	         -3.65076496	        -13.46057084	        -22.73503961	          6.98345800	         32.89755434	         -9.52549400	          3.65459737	         -8.08571823	          0.02721730	          0.05490322	          0.01000000	          0.12760756	          0.17274933	          0.09122177	          0.01000000	          0.01160046	          0.03240699	          0.00999999	          0.27053044	          0.00999999	          0.00999999	          0.30251205	          0.07418449	          0.01115743	          0.00999999	          0.01275780	          0.20679767	          0.11056812	          0.06816125	          0.01221712	          0.00999999	          0.00999999	          0.00999999	          0.06781804	          0.09517298	          0.00999999	
          1.45000277	         -2.03915556	         -1.49798251	          4.24481286	          1.34019241	          0.87902595	         -0.00135997	         24.65528497	          0.71458141	         -9.47455298	        -19.61467836	          4.47203776	          0.52772392	        -11.40269164	         -4.41095053	        -14.32551002	        -26.66070681	          4.91453514	         33.69877336	         -9.24327599	          4.48162390	         -7.90228845	          0.02227800	          0.04493954	          0.00999999	          0.12446233	          0.15917272	          0.09500781	          0.01000000	          0.02375381	          0.02652586	          0.00999999	          0.25615247	          0.00999999	          0.00999999	          0.27116143	          0.07270785	          0.00999999	          0.00999999	          0.01044255	          0.21740604	          0.09050254	          0.07280877	          0.00999999	          0.00999999	          0.00999999	          0.00999999	          0.05551062	          0.07790126	          0.01000004	
          1.46330555	         -2.01438484	         -1.56865358	          3.87444867	          1.35454504	          0.88181432	         -0.00011886	         23.62626980	          1.01927199	         -9.43272108	        -19.51396602	          4.84494966	          0.83917491	         -9.83227784	         -5.19078721	        -15.16360579	        -30.98962667	          2.79581194	         33.43880738	         -9.03397248	          5.17757029	         -7.67970834	          0.01823506	          0.03678404	          0.00999999	          0.12415712	          0.13028651	          0.09690212	          0.00999999	          0.04684565	          0.02171203	          0.00999999	          0.24096909	          0.00999999	          0.00999999	          0.24419141	          0.08247084	          0.00999999	          0.00999999	          0.00999999	          0.24820057	          0.07407840	          0.07259991	          0.00999999	          0.01000000	          0.00999999	          0.00999999	          0.04543671	          0.06376396	          0.04534520	
